:FULLY-SPECIFIED
:FORCE-ALL-JOINTS-BE-3DOF
:DEGREES
577
root 6.98616 16.3853 -3.57502 -166.389 76.6361 -173.35
lfemur -16.7207 -3.88822 -19.5006
ltibia 44.1366 0 0
lfoot -32.3404 10.9386 0
ltoes 8.27738 0 0
rfemur -52.6444 -12.8645 14.1811
rtibia 49.4582 0 0
rfoot 10.4775 4.48723 0
rtoes -29.2361 0 0
lowerback 6.637 -0.633186 -2.33342
upperback 2.35763 -0.838215 3.37578
thorax -1.19912 -0.396767 4.8715
lowerneck -5.43042 -13.4564 -3.96473
upperneck 10.6034 -18.2292 5.03654
head 4.89991 -8.81078 0.983883
lclavicle 2.76311e-14 -8.74653e-15 0
lhumerus -39.7747 -17.7282 92.528
lradius 55.1169 0 0
lwrist 23.5346 0 0
lhand -21.3303 -3.70658 0
lfingers 7.12502 0 0
lthumb 5.05547 26.2131 0
rclavicle 2.76311e-14 -8.74653e-15 0
rhumerus 28.6651 15.104 -73.8421
rradius 133.841 0 0
rwrist -46.1452 0 0
rhand -25.766 -21.3945 0
rfingers 7.12502 0 0
rthumb 0.771761 -771.373 0
578
root 6.93406 16.391 -3.56474 -165.416 77.344 -172.297
lfemur -16.7071 -3.50576 -19.4958
ltibia 44.0234 0 0
lfoot -32.2978 11.1092 0
ltoes 8.36909 0 0
rfemur -52.6036 -13.0972 14.2609
rtibia 51.0203 0 0
rfoot 11.164 5.15463 0
rtoes -28.0678 0 0
lowerback 6.46133 -0.646719 -2.4449
upperback 2.32085 -0.86681 3.27679
thorax -1.13626 -0.414063 4.83041
lowerneck -5.47236 -13.4328 -3.9239
upperneck 10.7791 -18.2147 5.06793
head 4.96018 -8.79381 0.978925
lclavicle 2.73573e-14 -6.96299e-15 0
lhumerus -38.7099 -18.4091 91.8073
lradius 54.8903 0 0
lwrist 23.7412 0 0
lhand -21.1938 -3.47902 0
lfingers 7.12502 0 0
lthumb 5.18725 26.4373 0
rclavicle 2.73573e-14 -6.96299e-15 0
rhumerus 28.4752 15.189 -73.7975
rradius 133.872 0 0
rwrist -46.0204 0 0
rhand -25.6688 -21.1795 0
rfingers 7.12502 0 0
rthumb 0.865601 -771.158 0
579
root 6.87828 16.397 -3.55372 -164.373 78.1019 -171.171
lfemur -16.6926 -3.09629 -19.4906
ltibia 43.9023 0 0
lfoot -32.2522 11.2918 0
ltoes 8.46727 0 0
rfemur -52.5598 -13.3463 14.3464
rtibia 52.6926 0 0
rfoot 11.8989 5.86914 0
rtoes -26.817 0 0
lowerback 6.27327 -0.661208 -2.56425
upperback 2.28148 -0.897424 3.17081
thorax -1.06897 -0.43258 4.78641
lowerneck -5.51727 -13.4075 -3.88019
upperneck 10.9673 -18.1991 5.10153
head 5.0247 -8.77565 0.973617
lclavicle 2.70642e-14 -5.05355e-15 0
lhumerus -37.5698 -19.1382 91.0358
lradius 54.6477 0 0
lwrist 23.9623 0 0
lhand -21.0477 -3.2354 0
lfingers 7.12502 0 0
lthumb 5.32833 26.6773 0
rclavicle 2.70642e-14 -5.05355e-15 0
rhumerus 28.2718 15.2799 -73.7498
rradius 133.905 0 0
rwrist -45.8867 0 0
rhand -25.5648 -20.9494 0
rfingers 7.12502 0 0
rthumb 0.966065 -770.927 0
580
root 6.82066 16.4032 -3.54235 -163.297 78.8847 -170.007
lfemur -16.6776 -2.67333 -19.4853
ltibia 43.7771 0 0
lfoot -32.2052 11.4804 0
ltoes 8.56869 0 0
rfemur -52.5147 -13.6036 14.4346
rtibia 54.4201 0 0
rfoot 12.658 6.60721 0
rtoes -25.525 0 0
lowerback 6.079 -0.676175 -2.68753
upperback 2.2408 -0.929047 3.06134
thorax -0.999452 -0.451708 4.74097
lowerneck -5.56365 -13.3815 -3.83505
upperneck 11.1616 -18.1831 5.13623
head 5.09136 -8.75689 0.968134
lclavicle 2.67614e-14 -3.08116e-15 0
lhumerus -36.3922 -19.8912 90.2388
lradius 54.3971 0 0
lwrist 24.1908 0 0
lhand -20.8968 -2.98375 0
lfingers 7.12502 0 0
lthumb 5.47406 26.9251 0
rclavicle 2.67614e-14 -3.08116e-15 0
rhumerus 28.0618 15.3738 -73.7005
rradius 133.939 0 0
rwrist -45.7487 0 0
rhand -25.4574 -20.7117 0
rfingers 7.12502 0 0
rthumb 1.06984 -770.688 0
581
root 6.76305 16.4095 -3.53098 -162.221 79.6676 -168.842
lfemur -16.6626 -2.25038 -19.4799
ltibia 43.6519 0 0
lfoot -32.1581 11.669 0
ltoes 8.6701 0 0
rfemur -52.4695 -13.8609 14.5229
rtibia 56.1476 0 0
rfoot 13.4171 7.34527 0
rtoes -24.233 0 0
lowerback 5.88473 -0.691141 -2.81081
upperback 2.20013 -0.960671 2.95187
thorax -0.929937 -0.470836 4.69553
lowerneck -5.61003 -13.3554 -3.7899
upperneck 11.3559 -18.167 5.17094
head 5.15801 -8.73812 0.962651
lclavicle 2.64586e-14 -1.10878e-15 0
lhumerus -35.2147 -20.6442 89.4419
lradius 54.1464 0 0
lwrist 24.4193 0 0
lhand -20.7458 -2.73209 0
lfingers 7.12502 0 0
lthumb 5.61979 27.173 0
rclavicle 2.64586e-14 -1.10878e-15 0
rhumerus 27.8518 15.4678 -73.6512
rradius 133.973 0 0
rwrist -45.6107 0 0
rhand -25.3499 -20.474 0
rfingers 7.12502 0 0
rthumb 1.17362 -770.45 0
582
root 6.70727 16.4155 -3.51997 -161.178 80.4255 -167.716
lfemur -16.6481 -1.84091 -19.4747
ltibia 43.5308 0 0
lfoot -32.1125 11.8516 0
ltoes 8.76828 0 0
rfemur -52.4257 -14.11 14.6084
rtibia 57.8199 0 0
rfoot 14.152 8.05978 0
rtoes -22.9822 0 0
lowerback 5.69667 -0.70563 -2.93016
upperback 2.16076 -0.991285 2.84589
thorax -0.862642 -0.489353 4.65153
lowerneck -5.65494 -13.3301 -3.74619
upperneck 11.5441 -18.1514 5.20454
head 5.22253 -8.71996 0.957343
lclavicle 2.61655e-14 8.00659e-16 0
lhumerus -34.0746 -21.3733 88.6704
lradius 53.9038 0 0
lwrist 24.6404 0 0
lhand -20.5997 -2.48847 0
lfingers 7.12502 0 0
lthumb 5.76087 27.413 0
rclavicle 2.61655e-14 8.00659e-16 0
rhumerus 27.6484 15.5587 -73.6035
rradius 134.006 0 0
rwrist -45.477 0 0
rhand -25.2459 -20.2439 0
rfingers 7.12502 0 0
rthumb 1.27408 -770.219 0
583
root 6.65517 16.4212 -3.50968 -160.205 81.1334 -166.663
lfemur -16.6345 -1.45845 -19.4699
ltibia 43.4176 0 0
lfoot -32.0699 12.0222 0
ltoes 8.85999 0 0
rfemur -52.3849 -14.3427 14.6882
rtibia 59.382 0 0
rfoot 14.8385 8.72718 0
rtoes -21.8139 0 0
lowerback 5.521 -0.719163 -3.04164
upperback 2.12398 -1.01988 2.7469
thorax -0.799783 -0.506649 4.61044
lowerneck -5.69688 -13.3065 -3.70536
upperneck 11.7198 -18.1369 5.23593
head 5.2828 -8.70299 0.952385
lclavicle 2.58917e-14 2.5842e-15 0
lhumerus -33.0098 -22.0542 87.9497
lradius 53.6772 0 0
lwrist 24.847 0 0
lhand -20.4632 -2.26091 0
lfingers 7.12502 0 0
lthumb 5.89265 27.6372 0
rclavicle 2.58917e-14 2.5842e-15 0
rhumerus 27.4585 15.6437 -73.5589
rradius 134.037 0 0
rwrist -45.3522 0 0
rhand -25.1487 -20.0289 0
rfingers 7.12502 0 0
rthumb 1.36792 -770.004 0
584
root 6.61062 16.4165 -3.49406 -157.017 81.8027 -163.32
lfemur -16.6808 -0.333072 -19.3762
ltibia 43.5995 0 0
lfoot -32.0339 12.0745 0
ltoes 7.78482 0 0
rfemur -51.5452 -14.103 14.7334
rtibia 59.2047 0 0
rfoot 14.339 8.66675 0
rtoes -21.3171 0 0
lowerback 5.42479 -0.775371 -3.31274
upperback 2.12145 -1.1082 2.69724
thorax -0.732962 -0.55488 4.71522
lowerneck -5.66284 -13.2909 -3.72465
upperneck 11.7903 -18.1406 5.38576
head 5.31553 -8.69453 0.997167
lclavicle 2.33826e-14 3.04573e-15 0
lhumerus -31.983 -22.6357 87.5522
lradius 53.5869 0 0
lwrist 24.7946 0 0
lhand -20.353 -2.25557 0
lfingers 7.12502 0 0
lthumb 5.99907 27.6394 0
rclavicle 2.33826e-14 3.04573e-15 0
rhumerus 27.162 15.7984 -73.4604
rradius 134.028 0 0
rwrist -45.1677 0 0
rhand -25.2284 -19.8955 0
rfingers 7.12502 0 0
rthumb 1.29095 -769.871 0
585
root 6.56293 16.4116 -3.47733 -153.603 82.5193 -159.742
lfemur -16.7305 0.871744 -19.2759
ltibia 43.7942 0 0
lfoot -31.9953 12.1304 0
ltoes 6.63376 0 0
rfemur -50.6463 -13.8463 14.7818
rtibia 59.0149 0 0
rfoot 13.8043 8.60204 0
rtoes -20.7852 0 0
lowerback 5.3218 -0.835547 -3.60297
upperback 2.11874 -1.20276 2.64408
thorax -0.661425 -0.606516 4.82739
lowerneck -5.6264 -13.2742 -3.7453
upperneck 11.8657 -18.1445 5.54616
head 5.35056 -8.68548 1.04511
lclavicle 2.06964e-14 3.53984e-15 0
lhumerus -30.8837 -23.2583 87.1267
lradius 53.4902 0 0
lwrist 24.7384 0 0
lhand -20.235 -2.24986 0
lfingers 7.12502 0 0
lthumb 6.11301 27.6417 0
rclavicle 2.06964e-14 3.53984e-15 0
rhumerus 26.8447 15.964 -73.3549
rradius 134.019 0 0
rwrist -44.9701 0 0
rhand -25.3137 -19.7528 0
rfingers 7.12502 0 0
rthumb 1.20855 -769.729 0
586
root 6.51366 16.4064 -3.46006 -150.078 83.2595 -156.046
lfemur -16.7817 2.11628 -19.1723
ltibia 43.9953 0 0
lfoot -31.9555 12.1882 0
ltoes 5.44475 0 0
rfemur -49.7177 -13.5812 14.8319
rtibia 58.8188 0 0
rfoot 13.2519 8.53521 0
rtoes -20.2357 0 0
lowerback 5.2154 -0.897706 -3.90278
upperback 2.11594 -1.30043 2.58916
thorax -0.58753 -0.659855 4.94326
lowerneck -5.58875 -13.2569 -3.76663
upperneck 11.9437 -18.1486 5.71185
head 5.38675 -8.67613 1.09463
lclavicle 1.79217e-14 4.05024e-15 0
lhumerus -29.7481 -23.9015 86.6871
lradius 53.3903 0 0
lwrist 24.6804 0 0
lhand -20.1131 -2.24396 0
lfingers 7.12502 0 0
lthumb 6.2307 27.6441 0
rclavicle 1.79217e-14 4.05024e-15 0
rhumerus 26.5168 16.1351 -73.246
rradius 134.01 0 0
rwrist -44.766 0 0
rhand -25.4018 -19.6053 0
rfingers 7.12502 0 0
rthumb 1.12343 -769.582 0
587
root 6.46439 16.4012 -3.44278 -146.552 83.9996 -152.349
lfemur -16.8329 3.36082 -19.0687
ltibia 44.1964 0 0
lfoot -31.9157 12.246 0
ltoes 4.25575 0 0
rfemur -48.7891 -13.3161 14.8819
rtibia 58.6228 0 0
rfoot 12.6995 8.46838 0
rtoes -19.6863 0 0
lowerback 5.10901 -0.959866 -4.20258
upperback 2.11315 -1.39811 2.53425
thorax -0.513634 -0.713193 5.05913
lowerneck -5.5511 -13.2397 -3.78796
upperneck 12.0217 -18.1526 5.87755
head 5.42294 -8.66678 1.14416
lclavicle 1.51469e-14 4.56063e-15 0
lhumerus -28.6126 -24.5446 86.2475
lradius 53.2905 0 0
lwrist 24.6224 0 0
lhand -19.9911 -2.23806 0
lfingers 7.12502 0 0
lthumb 6.34839 27.6466 0
rclavicle 1.51469e-14 4.56063e-15 0
rhumerus 26.1889 16.3062 -73.1371
rradius 134 0 0
rwrist -44.5619 0 0
rhand -25.49 -19.4578 0
rfingers 7.12502 0 0
rthumb 1.03832 -769.435 0
588
root 6.4167 16.3963 -3.42605 -143.138 84.7162 -148.771
lfemur -16.8826 4.56563 -18.9684
ltibia 44.3911 0 0
lfoot -31.8771 12.3019 0
ltoes 3.10469 0 0
rfemur -47.8902 -13.0594 14.9303
rtibia 58.433 0 0
rfoot 12.1648 8.40368 0
rtoes -19.1544 0 0
lowerback 5.00602 -1.02004 -4.49281
upperback 2.11044 -1.49267 2.48109
thorax -0.442097 -0.764829 5.1713
lowerneck -5.51466 -13.223 -3.80861
upperneck 12.0971 -18.1565 6.03795
head 5.45798 -8.65773 1.1921
lclavicle 1.24607e-14 5.05474e-15 0
lhumerus -27.5133 -25.1672 85.822
lradius 53.1938 0 0
lwrist 24.5662 0 0
lhand -19.8731 -2.23235 0
lfingers 7.12502 0 0
lthumb 6.46233 27.6489 0
rclavicle 1.24607e-14 5.05474e-15 0
rhumerus 25.8716 16.4718 -73.0316
rradius 133.991 0 0
rwrist -44.3643 0 0
rhand -25.5753 -19.3151 0
rfingers 7.12502 0 0
rthumb 0.955914 -769.293 0
589
root 6.37215 16.3916 -3.41043 -139.95 85.3855 -145.428
lfemur -16.9289 5.69101 -18.8747
ltibia 44.573 0 0
lfoot -31.8411 12.3542 0
ltoes 2.02952 0 0
rfemur -47.0505 -12.8197 14.9755
rtibia 58.2557 0 0
rfoot 11.6653 8.34324 0
rtoes -18.6576 0 0
lowerback 4.90981 -1.07625 -4.76391
upperback 2.10791 -1.58099 2.43143
thorax -0.375276 -0.81306 5.27608
lowerneck -5.48062 -13.2074 -3.8279
upperneck 12.1676 -18.1602 6.18778
head 5.4907 -8.64927 1.23688
lclavicle 9.95166e-15 5.51627e-15 0
lhumerus -26.4865 -25.7487 85.4245
lradius 53.1035 0 0
lwrist 24.5138 0 0
lhand -19.7629 -2.22701 0
lfingers 7.12502 0 0
lthumb 6.56875 27.6511 0
rclavicle 9.95166e-15 5.51627e-15 0
rhumerus 25.5751 16.6265 -72.9331
rradius 133.982 0 0
rwrist -44.1798 0 0
rhand -25.655 -19.1817 0
rfingers 7.12502 0 0
rthumb 0.878946 -769.16 0
